<?xml version="1.0" standalone="no"?>
<!DOCTYPE svg PUBLIC "-//W3C//DTD SVG 20010904//EN"
 "http://www.w3.org/TR/2001/REC-SVG-20010904/DTD/svg10.dtd">
<svg version="1.0" xmlns="http://www.w3.org/2000/svg"
 width="3840.000000pt" height="2160.000000pt" viewBox="0 0 3840.000000 2160.000000"
 preserveAspectRatio="xMidYMid meet">

<g transform="translate(0.000000,2160.000000) scale(0.100000,-0.100000)"
fill="#000000" stroke="none">
<path d="M24640 16971 l0 -2791 633 0 c643 0 774 -3 1067 -21 1829 -112 3473
-892 4571 -2169 957 -1113 1549 -2600 1723 -4330 52 -512 50 -365 55 -3080 l6
-2535 2608 -3 2607 -2 0 2052 c0 2344 -5 2602 -61 3278 -235 2866 -1244 5509
-2897 7590 -1156 1455 -2586 2611 -4242 3429 -1244 615 -2580 1023 -4005 1225
-581 82 -1128 125 -1797 142 l-268 7 0 -2792z"/>
<path d="M10780 19100 l0 -470 795 0 795 0 2 -2172 3 -2173 553 -3 552 -2 0
2175 0 2175 795 0 795 0 0 470 0 470 -2145 0 -2145 0 0 -470z"/>
<path d="M15397 19563 c-4 -3 -7 -1194 -7 -2645 l0 -2638 555 0 555 0 0 1185
0 1185 1025 0 1025 0 0 -1185 0 -1185 555 0 555 0 -2 2643 -3 2642 -550 0
-550 0 -5 -1001 -5 -1001 -1022 0 -1023 0 -2 1001 -3 1001 -546 3 c-300 1
-549 -1 -552 -5z"/>
<path d="M20000 16925 l0 -2645 2005 0 2005 0 -2 468 -3 467 -1462 3 -1463 2
0 685 0 685 1285 0 1285 0 0 465 0 465 -1285 0 -1285 0 0 555 0 555 1400 0
1400 0 0 470 0 470 -1940 0 -1940 0 0 -2645z"/>
<path d="M24640 10931 l0 -2801 478 0 c494 0 635 -7 834 -41 714 -120 1272
-520 1641 -1174 208 -370 351 -843 411 -1365 30 -259 36 -564 36 -2032 l0
-1478 2105 0 2105 0 -1 2283 c-2 2214 -5 2587 -29 2923 -106 1529 -516 2837
-1213 3879 -366 547 -816 1020 -1340 1412 -849 634 -1874 1023 -3022 1148
-307 33 -433 37 -1207 42 l-798 5 0 -2801z"/>
<path d="M7420 13553 c-601 -41 -1107 -225 -1505 -546 -112 -91 -278 -264
-367 -383 -223 -300 -381 -683 -457 -1104 -49 -273 -55 -357 -55 -745 0 -328
2 -389 22 -535 42 -312 102 -548 199 -790 323 -805 1017 -1315 1953 -1434 606
-77 1258 54 1753 353 483 292 828 759 997 1351 157 547 181 1247 64 1845 -135
694 -465 1218 -989 1569 -115 77 -355 198 -499 251 -335 123 -785 191 -1116
168z m395 -949 c188 -32 412 -126 560 -237 224 -165 403 -428 504 -741 170
-521 159 -1283 -26 -1781 -101 -275 -288 -530 -493 -674 -155 -109 -357 -192
-553 -228 -125 -23 -371 -22 -492 1 -294 56 -509 167 -706 365 -313 314 -466
753 -483 1386 -24 932 300 1585 909 1831 104 42 259 80 375 93 105 12 286 5
405 -15z"/>
<path d="M490 10775 l0 -2645 515 0 515 0 0 1886 c0 1251 3 1885 10 1882 5 -1
493 -849 1083 -1883 l1074 -1880 551 -3 552 -2 0 2645 0 2645 -515 0 -515 0 0
-1840 c0 -1012 -3 -1840 -7 -1840 -5 0 -471 815 -1037 1810 -566 995 -1037
1823 -1047 1840 l-19 30 -580 0 -580 0 0 -2645z"/>
<path d="M10390 10775 l0 -2645 540 0 540 0 0 1035 0 1035 643 0 c355 0 684
-5 737 -10 329 -35 487 -137 564 -363 37 -110 47 -225 56 -647 5 -247 15 -476
25 -565 15 -143 50 -340 78 -436 l13 -44 612 -3 612 -2 0 70 0 70 -47 24
c-161 82 -192 237 -193 956 0 331 -10 483 -41 660 -65 369 -198 549 -525 707
-88 43 -95 48 -73 57 165 67 268 131 377 231 178 165 297 372 362 630 155 612
-83 1277 -574 1606 -199 134 -421 213 -731 260 -59 9 -452 13 -1527 16 l-1448
4 0 -2646z m2732 1703 c254 -69 412 -222 475 -458 25 -92 25 -336 0 -443 -52
-221 -184 -362 -407 -436 -146 -47 -215 -51 -992 -51 l-728 0 0 711 0 710 778
-3 777 -4 97 -26z"/>
<path d="M14950 12950 l0 -470 795 0 795 0 0 -2175 0 -2175 550 0 550 0 0
2175 0 2175 800 0 800 0 0 470 0 470 -2145 0 -2145 0 0 -470z"/>
<path d="M19560 10775 l0 -2645 550 0 550 0 0 1185 0 1185 1030 0 1030 0 0
-1185 0 -1185 550 0 550 0 0 2645 0 2645 -550 0 -550 0 0 -1000 c0 -793 -3
-1000 -12 -1001 -40 -3 -2025 -4 -2035 -1 -10 3 -13 213 -13 1003 l0 999 -550
0 -550 0 0 -2645z"/>
<path d="M24640 4860 l0 -2820 1475 0 1476 0 -4 1638 c-4 1743 -3 1691 -52
2007 -65 408 -198 794 -375 1085 -131 216 -330 434 -510 562 -201 143 -456
251 -712 302 -197 40 -313 46 -820 46 l-478 0 0 -2820z"/>
<path d="M17105 7399 c-876 -67 -1574 -553 -1926 -1342 -133 -296 -216 -627
-261 -1037 -19 -172 -16 -669 5 -857 49 -440 143 -776 309 -1108 283 -566 768
-962 1378 -1124 620 -165 1346 -97 1858 174 559 297 951 851 1111 1572 12 51
21 97 21 103 0 7 -186 10 -549 10 l-549 0 -21 -87 c-60 -240 -177 -449 -334
-600 -96 -91 -166 -140 -281 -194 -267 -125 -641 -144 -936 -47 -413 134 -710
519 -835 1081 -53 242 -60 316 -60 677 1 295 3 352 23 475 72 460 208 769 442
1006 276 280 630 391 1063 334 467 -61 748 -301 898 -764 l42 -131 549 0 548
0 0 33 c0 58 -31 218 -65 338 -139 483 -460 901 -895 1165 -410 248 -970 366
-1535 323z"/>
<path d="M6960 4625 l0 -2645 550 0 550 0 2 1113 3 1112 1140 2 c627 1 1148 2
1158 2 16 1 17 30 17 466 l0 465 -1160 0 -1160 0 0 595 0 595 1325 0 1325 0 0
470 0 470 -1875 0 -1875 0 0 -2645z"/>
<path d="M12035 7261 c-9 -15 -1875 -5261 -1875 -5272 0 -5 222 -9 578 -9
l577 0 184 545 184 545 974 -2 975 -3 168 -540 168 -540 597 -3 597 -2 -5 22
c-4 13 -421 1203 -929 2646 l-922 2622 -632 0 c-389 0 -635 -4 -639 -9z m644
-1213 c50 -159 632 -2024 637 -2043 l6 -25 -671 0 c-480 0 -671 3 -671 11 0 8
434 1360 651 2027 11 34 24 62 29 62 5 0 13 -15 19 -32z"/>
<path d="M20000 4625 l0 -2645 2005 0 2005 0 -2 468 -3 467 -1462 3 -1463 2 0
685 0 685 1285 0 1285 0 0 465 0 465 -1285 0 -1285 0 0 555 0 555 1400 0 1400
0 0 470 0 470 -1940 0 -1940 0 0 -2645z"/>
</g>
</svg>
